<svg xmlns="http://www.w3.org/2000/svg" xmlns:xlink="http://www.w3.org/1999/xlink" width="299.792" height="42.486" viewBox="0 0 299.792 42.486">
  <defs>
    <clipPath id="clip-path">
      <rect id="사각형_3231" data-name="사각형 3231" width="299.792" height="42.486" fill="#fff"/>
    </clipPath>
    <filter id="패스_1326" x="-9" y="-6" width="317.792" height="60.486" filterUnits="userSpaceOnUse">
      <feOffset dy="3" input="SourceAlpha"/>
      <feGaussianBlur stdDeviation="3" result="blur"/>
      <feFlood flood-opacity="0.161"/>
      <feComposite operator="in" in2="blur"/>
      <feComposite in="SourceGraphic"/>
    </filter>
  </defs>
  <g id="그룹_3017" data-name="그룹 3017" transform="translate(0 0)">
    <g id="그룹_3016" data-name="그룹 3016" transform="translate(0 0)" clip-path="url(#clip-path)">
      <g transform="matrix(1, 0, 0, 1, 0, 0)" filter="url(#패스_1326)">
        <path id="패스_1326-2" data-name="패스 1326" d="M299.792,42.032v-.646c-4.85-.581-5.042-1.033-5.173-7.047l-.646-24.509c-.194-7.372.129-7.825,5.239-8.408V.775H290.74L278.065,33.237,265.585.775h-8.408v.646c4.916.583,5.625,1.164,5.108,9.312l-1.033,14.485c-.454,5.951-.777,10.024-1.035,11.965-.389,3.169-1.164,3.815-4.85,4.2v.646h12.092v-.646c-4.2-.323-4.914-.9-4.914-4.656,0-2,0-6.206.258-11.251l.906-17.525h.129l12.028,33.432h.841l12.8-33.949h.194l.258,26.9c.065,6.014-.063,6.466-4.462,7.047v.646ZM237.584,24.249h-9.377c1.487-5.3,3.105-10.8,4.656-15.972h.131Zm13.968,17.783v-.646c-3.621-.518-4.073-.71-5.625-5.56C241.788,22.956,238.49,11.445,235.062,0l-.841.387L223.164,35.308c-1.681,5.3-2.393,5.56-5.627,6.078v.646H228.53v-.646c-4.073-.518-4.656-.9-3.75-4.719s2.262-8.665,2.974-10.8H238.1c1.487,4.981,2.909,9.829,3.686,12.611.518,1.939.063,2.457-3.557,2.909v.646ZM213.206,32.98a22.16,22.16,0,0,1-2.522,5.5c-1.295,1.551-2.459,2.328-7.438,2.328-3.686,0-4.979-.129-5.754-.841-.712-.646-1.035-2.07-1.035-5.625V21.4h5.3c4.916,0,5.239.389,5.885,4.333h.712V15.584h-.712c-.583,3.686-.775,4.269-5.885,4.269h-5.3V4.073c0-1.939.129-2.068,1.616-2.068H201.5c4.2,0,5.883.258,6.984,1.682a11.945,11.945,0,0,1,2,5.366l.775-.129c-.258-2.522-.581-7.113-.646-8.148H187.4v.646c4.009.452,4.527.646,4.527,6.466V34.661c0,5.949-.518,6.272-5.431,6.724v.646H212.04c.454-1.745,1.747-7.565,1.941-8.858Zm-51.8-10.607V5.108c0-1.616.129-2.134.518-2.522a5.717,5.717,0,0,1,3.232-.646c3.944,0,7.953,3.1,7.953,10.281,0,3.623-1.1,6.4-3.169,8.213-1.616,1.422-3.426,1.939-6.143,1.939Zm22.762,19.4c-1.164-.389-1.939-.906-3.881-3.363a56.992,56.992,0,0,1-4.719-7.049c-1.618-2.715-4.075-7.113-5.11-9.312,4.464-2.2,7.632-5.5,7.632-10.993a9.761,9.761,0,0,0-3.817-8.082c-2.134-1.616-4.785-2.2-9.181-2.2h-12.74v.646c4.2.518,4.527.841,4.527,6.726V34.725c0,5.885-.323,6.208-4.785,6.661v.646h13.968v-.646c-4.269-.452-4.656-.775-4.656-6.661V23.408l2.134.065c2.391.063,2.974.97,3.881,2.78,1.616,3.234,4.2,7.825,5.82,10.476,2.068,3.428,4.073,5.3,9.117,5.691a16.2,16.2,0,0,0,1.682.065ZM124.16,6.143c0-2.651.194-3.169.712-3.557A6.5,6.5,0,0,1,128.1,2a11.577,11.577,0,0,1,7.115,2.2c5.045,3.234,6.466,10.347,6.466,16.038,0,11.963-4.267,20.3-13.192,20.3-4.009,0-4.333-2.457-4.333-5.431ZM115.366.775v.712c3.881.518,4.267.775,4.267,6.724v26.45c0,5.949-.387,6.272-4.979,6.724v.646h10.281c7.049,0,11.834-1.551,15.715-5.173,3.815-3.621,6.274-9.246,6.274-17.136,0-6.272-1.941-10.6-4.656-13.644-3.234-3.621-7.438-5.3-14.679-5.3ZM98.1.775H87.042v.646c4.138.518,4.527.97,2.782,5.368-1.681,4.333-4.075,9.764-6.208,14.291C81.158,15.907,78.7,10.733,75.854,4.4c-.97-2.134-.452-2.457,3.105-2.974V.775H66.348v.646c3.3.452,3.623.841,5.951,5.691,2.457,5.431,4.719,9.764,7.242,15.455a6.383,6.383,0,0,1,.389,2.651V34.79c0,5.754-.323,6.078-5.3,6.6v.646h15.26v-.646c-4.979-.518-5.431-.841-5.431-6.6V24.572a7.273,7.273,0,0,1,.712-3.555c2.262-5.045,4.462-9.96,7.178-15.326C94.026,2.328,94.48,1.939,98.1,1.422ZM53.675,24.249H44.3c1.487-5.3,3.1-10.8,4.656-15.972h.129ZM67.643,42.032v-.646c-3.621-.518-4.075-.71-5.625-5.56C57.877,22.956,54.58,11.445,51.153,0l-.841.387L39.254,35.308c-1.682,5.3-2.391,5.56-5.625,6.078v.646H44.621v-.646c-4.075-.518-4.656-.9-3.752-4.719s2.265-8.665,2.976-10.8H54.193c1.487,4.981,2.909,9.829,3.684,12.611.518,1.939.065,2.457-3.555,2.909v.646ZM9.506,6.143c0-2.651.194-3.169.712-3.557A6.506,6.506,0,0,1,13.452,2a11.576,11.576,0,0,1,7.113,2.2c5.045,3.234,6.466,10.347,6.466,16.038,0,11.963-4.267,20.3-13.192,20.3-4.009,0-4.333-2.457-4.333-5.431ZM.712.775v.712C4.592,2,4.979,2.262,4.979,8.211v26.45c0,5.949-.387,6.272-4.979,6.724v.646H10.283c7.047,0,11.834-1.551,15.713-5.173,3.815-3.621,6.274-9.246,6.274-17.136,0-6.272-1.941-10.6-4.656-13.644C24.38,2.457,20.176.775,12.935.775Z" transform="translate(0 0)" fill="#fff"/>
      </g>
    </g>
  </g>
</svg>
