<svg xmlns="http://www.w3.org/2000/svg" xmlns:xlink="http://www.w3.org/1999/xlink" width="394.991" height="21.534" viewBox="0 0 394.991 21.534">
  <defs>
    <clipPath id="clip-path">
      <rect id="사각형_3230" data-name="사각형 3230" width="394.991" height="21.534"/>
    </clipPath>
  </defs>
  <g id="그룹_3014" data-name="그룹 3014" clip-path="url(#clip-path)">
    <path id="패스_1325" data-name="패스 1325" d="M394.991.76h-5.739v.318c1.9.094,2.409.444,2.5,1.838.1.762.159,2.666.159,5.36v8.152h-.1L381.733.76H377.9v.318a2.5,2.5,0,0,1,2.443,1.394c.475.762.475,1.27.475,2.792v8.183c0,2.633-.063,4.378-.159,5.234-.094,1.49-.538,1.871-2.442,2V21h6.342v-.318c-2.061-.159-2.759-.507-2.823-1.871-.063-.982-.157-2.727-.157-5.36V4.471h.063L392.1,21.249h.571V8.277c0-2.694.128-4.5.191-5.391.094-1.27.475-1.649,2.124-1.808ZM368.1,1.046c3.457,0,5.075,3.964,5.075,10.657,0,5.9-1.459,9.008-4.314,9.008-3.52,0-5.075-4.441-5.075-10.467,0-5.9,1.522-9.2,4.282-9.2Zm.538-.666c-4.979,0-7.453,5.423-7.453,10.72,0,5.837,3.012,10.278,7.168,10.278,4.249,0,7.422-4.345,7.422-10.785,0-6.057-3.2-10.213-7.1-10.213ZM358.549,21v-.318c-2.093-.253-2.283-.412-2.283-3.234V4.376c0-2.886.19-3.045,2.283-3.3V.76h-6.787v.318c2.093.253,2.284.412,2.284,3.3V17.444c0,2.823-.222,2.982-2.284,3.234V21ZM349.257,4.788C349.131,3.583,349,1.3,348.972,0h-.255c-.444.571-.6.76-1.363.76h-9.99a1.467,1.467,0,0,1-1.49-.76h-.222c-.063,1.586-.222,3.583-.318,4.853h.349a16.367,16.367,0,0,1,.762-2.315c.379-.921.952-1.174,3.489-1.174h1.235V17.729c0,2.633-.19,2.759-2.442,2.949V21h7.2v-.318c-2.378-.19-2.537-.316-2.537-2.949V1.363h1.553c2.062,0,2.7.159,3.141,1.046a9.445,9.445,0,0,1,.825,2.443ZM325.374,1.046c3.458,0,5.075,3.964,5.075,10.657,0,5.9-1.457,9.008-4.313,9.008-3.52,0-5.075-4.441-5.075-10.467,0-5.9,1.522-9.2,4.282-9.2Zm.54-.666c-4.979,0-7.453,5.423-7.453,10.72,0,5.837,3.012,10.278,7.168,10.278,4.249,0,7.422-4.345,7.422-10.785,0-6.057-3.2-10.213-7.1-10.213Zm-9.642,16.239a13.1,13.1,0,0,1-1.364,2.759c-.6.825-1.427,1.015-3.393,1.015a5.589,5.589,0,0,1-2.474-.349c-.475-.285-.6-.984-.6-2.664V4.123c0-2.633.191-2.792,2.158-3.045V.76h-6.44v.318c1.84.253,2.062.412,2.062,3.045V17.7c0,2.57-.222,2.729-2.378,2.982V21H315.7c.222-.793.793-3.522.952-4.282Zm-28.7,2.949c-1.714,0-3.807-1.268-3.807-4.535a6.272,6.272,0,0,1,2.411-4.853,68.732,68.732,0,0,1,5.645,6.5c-.793,1.3-2.22,2.886-4.219,2.886Zm.094-18.4c1.681,0,2.507,1.777,2.474,3.489a5.646,5.646,0,0,1-2.03,4.378c-1.649-1.681-2.537-3.077-2.568-4.537-.033-2.187,1.046-3.33,2.093-3.33Zm11.609,6.852h-5.835V8.34c2.03.318,2.283.636,1.553,2.411a19.115,19.115,0,0,1-1.934,3.87c-2.219-2.759-3.933-4.537-4.535-5.234,1.015-.825,1.808-1.618,2.315-2.093a4,4,0,0,0,1.141-2.6A3.945,3.945,0,0,0,288.014.571c-2.126,0-4.188,1.934-4.251,4.82A6.812,6.812,0,0,0,285.856,9.8c-2.061,1.681-4.154,3.2-4.217,6.122a5.182,5.182,0,0,0,5.138,5.456c1.871,0,3.583-1.237,5.454-4.251.858,1.015,2.126,2.664,2.443,3.141a7.135,7.135,0,0,0,3.171,1.268l.253-.157a39.067,39.067,0,0,0-4.63-6.312c1.078-1.777,1.808-3.045,2.6-4.345.921-1.522,1.365-2.158,3.2-2.38ZM274.5.76H268v.318c1.808.253,2.062.412,2.062,3.234V9.832h-7.834V4.313c0-2.886.222-3.012,2.03-3.234V.76h-6.471v.318c2,.222,2.221.349,2.221,3.234V17.444c0,2.853-.222,2.982-2.126,3.234V21h6.471v-.318c-1.9-.253-2.126-.381-2.126-3.234V10.624h7.834v6.819c0,2.823-.255,2.982-2.252,3.234V21h6.66v-.318c-1.967-.253-2.189-.412-2.189-3.234V4.313c0-2.823.222-2.982,2.219-3.234ZM254.585,4.535c-.19-1.363-.348-2.633-.475-3.615A11.441,11.441,0,0,0,251.1.379c-3.648,0-5.71,2.411-5.71,5.329,0,3.171,2.57,4.916,4.567,6.216,1.936,1.268,3.33,2.7,3.33,4.726,0,2.252-1.141,4.09-3.424,4.09-2.855,0-4.219-2.79-4.63-4.567l-.381.159c.222,1.459.412,3.171.666,4.092.349.126.824.379,1.522.6a10.468,10.468,0,0,0,2.442.35,5.627,5.627,0,0,0,5.931-5.71c0-3.393-2.982-5.169-4.757-6.342-2.03-1.3-3.267-2.474-3.267-4.694,0-1.84.982-3.615,3.045-3.615,2.409,0,3.267,1.712,3.774,3.615Zm-18.617,7.738h-4.6c.73-2.6,1.522-5.3,2.283-7.834h.063ZM242.819,21v-.318c-1.777-.253-2-.349-2.76-2.727-2.03-6.312-3.648-11.957-5.329-17.572l-.412.191L228.9,17.7c-.825,2.6-1.174,2.729-2.759,2.982V21h5.393v-.318c-2-.253-2.285-.444-1.84-2.315s1.111-4.249,1.459-5.3h5.075c.73,2.443,1.427,4.822,1.808,6.185.253.952.033,1.2-1.745,1.427V21ZM228.229.76h-5.582v.318c2.126.222,2.221.571,1.871,2.442-.538,2.7-1.934,8.723-2.98,12.846h-.065Q218.9,8.7,216.526,1.046h-.444c-1.3,4.853-2.7,10.182-4.092,15.161h-.063c-1.2-4.314-2.283-8.627-3.424-13.353-.35-1.4-.222-1.553,1.712-1.775V.76H203.87v.318c1.681.222,1.936.349,2.6,2.917,1.586,6.09,3.045,11.641,4.439,17.413h.414c1.237-4.979,2.664-9.864,4.217-15.795h.063c1.745,5.456,3.552,10.657,4.948,15.795h.414c2.156-8.912,4.027-15.921,4.471-17.476.666-2.442.952-2.6,2.79-2.853Zm-31.812,0h-5.423v.318c2.03.253,2.221.475,1.363,2.631-.824,2.126-2,4.789-3.045,7.011-1.2-2.537-2.409-5.075-3.805-8.183-.475-1.047-.222-1.206,1.522-1.459V.76h-6.185v.318c1.618.222,1.777.412,2.918,2.79,1.2,2.664,2.315,4.789,3.552,7.581a3.121,3.121,0,0,1,.19,1.3v4.694c0,2.823-.157,2.982-2.6,3.234V21h7.486v-.318c-2.442-.253-2.664-.412-2.664-3.234V12.432a3.575,3.575,0,0,1,.349-1.745c1.111-2.474,2.189-4.885,3.52-7.516.825-1.649,1.047-1.84,2.823-2.093ZM168.286,3.393c0-1.3.094-1.555.349-1.745a3.174,3.174,0,0,1,1.586-.285,5.679,5.679,0,0,1,3.489,1.078c2.474,1.586,3.171,5.075,3.171,7.865,0,5.867-2.093,9.96-6.471,9.96-1.967,0-2.124-1.206-2.124-2.664ZM163.972.76v.349c1.9.255,2.093.381,2.093,3.3V17.38c0,2.917-.19,3.076-2.442,3.3V21h5.042c3.458,0,5.8-.762,7.708-2.537,1.871-1.777,3.075-4.537,3.075-8.4a9.619,9.619,0,0,0-2.283-6.693c-1.586-1.775-3.648-2.6-7.2-2.6Zm-10.465.285c3.457,0,5.075,3.964,5.075,10.657,0,5.9-1.459,9.008-4.314,9.008-3.52,0-5.075-4.441-5.075-10.467,0-5.9,1.522-9.2,4.282-9.2Zm.538-.666c-4.979,0-7.453,5.423-7.453,10.72,0,5.837,3.012,10.278,7.168,10.278,4.249,0,7.422-4.345,7.422-10.785,0-6.057-3.2-10.213-7.1-10.213ZM134.223,10.529H135.3c3.489,0,5.329,1.555,5.329,4.822,0,3.552-2.062,5.011-4.41,5.042-1.49,0-2-.7-2-2.886Zm0-.571V3.2c0-1.141.126-1.553.444-1.712a4.153,4.153,0,0,1,1.459-.19c2.5,0,3.52,2.252,3.52,4.313,0,2.727-1.046,4.345-4.313,4.345Zm3.711.126c1.681-.475,4.123-1.934,4.123-4.724A4.473,4.473,0,0,0,140.5,1.775,7.132,7.132,0,0,0,136.22.76h-6.375v.318c2.062.253,2.158.412,2.158,2.917V17.348c0,2.949-.159,3.077-2.348,3.33V21h5.55a9.5,9.5,0,0,0,5.3-1.237,5.319,5.319,0,0,0,2.7-4.663c0-2.949-2.283-4.535-5.264-4.946ZM121.442.76h-5.423v.318c2.03.253,2.22.475,1.363,2.631-.825,2.126-2,4.789-3.045,7.011-1.206-2.537-2.411-5.075-3.807-8.183-.475-1.047-.222-1.206,1.522-1.459V.76h-6.184v.318c1.616.222,1.775.412,2.917,2.79,1.206,2.664,2.315,4.789,3.552,7.581a3.118,3.118,0,0,1,.191,1.3v4.694c0,2.823-.159,2.982-2.6,3.234V21h7.484v-.318c-2.442-.253-2.664-.412-2.664-3.234V12.432a3.6,3.6,0,0,1,.349-1.745c1.111-2.474,2.189-4.885,3.522-7.516.824-1.649,1.046-1.84,2.823-2.093ZM95.308,11.354V2.886c0-.793.063-1.047.253-1.237a2.8,2.8,0,0,1,1.586-.318c1.936,0,3.9,1.522,3.9,5.044A5.114,5.114,0,0,1,99.494,10.4a4.161,4.161,0,0,1-3.014.952Zm11.162,9.515c-.571-.191-.95-.444-1.9-1.651a27.611,27.611,0,0,1-2.315-3.457c-.793-1.333-2-3.489-2.507-4.567,2.189-1.078,3.744-2.7,3.744-5.393a4.788,4.788,0,0,0-1.873-3.964C100.573,1.046,99.272.76,97.116.76H90.867v.318c2.061.253,2.219.412,2.219,3.3V17.411c0,2.886-.159,3.045-2.346,3.267V21h6.85v-.318c-2.093-.222-2.283-.381-2.283-3.267v-5.55l1.046.031c1.174.033,1.459.477,1.9,1.365.793,1.586,2.061,3.838,2.853,5.138a4.916,4.916,0,0,0,4.473,2.79,7.814,7.814,0,0,0,.824.033ZM88.077,16.555a10.887,10.887,0,0,1-1.237,2.7c-.636.76-1.206,1.141-3.648,1.141-1.808,0-2.442-.063-2.823-.412-.349-.318-.507-1.015-.507-2.759V10.877h2.6c2.411,0,2.57.191,2.886,2.126H85.7V8.024h-.349c-.285,1.808-.381,2.093-2.886,2.093h-2.6V2.378c0-.952.063-1.015.793-1.015h1.681c2.061,0,2.886.126,3.424.824a5.858,5.858,0,0,1,.984,2.633l.381-.063C87,3.52,86.84,1.268,86.808.76H75.421v.318c1.967.222,2.221.316,2.221,3.171V17.38c0,2.917-.255,3.076-2.666,3.3V21H87.5c.222-.856.858-3.711.952-4.345ZM73.106.76H67.524v.318c2.126.222,2.221.571,1.871,2.442-.538,2.7-1.934,8.723-2.98,12.846H66.35Q63.782,8.7,61.4,1.046h-.444c-1.3,4.853-2.7,10.182-4.092,15.161H56.8C55.6,11.892,54.521,7.58,53.38,2.853c-.35-1.4-.222-1.553,1.712-1.775V.76H48.748v.318c1.681.222,1.936.349,2.6,2.917,1.586,6.09,3.045,11.641,4.439,17.413H56.2c1.235-4.979,2.664-9.864,4.217-15.795h.063c1.745,5.456,3.552,10.657,4.948,15.795h.412C68,12.5,69.872,5.486,70.316,3.932c.666-2.442.952-2.6,2.79-2.853Zm-33.872.285c3.457,0,5.075,3.964,5.075,10.657,0,5.9-1.459,9.008-4.314,9.008-3.52,0-5.075-4.441-5.075-10.467,0-5.9,1.522-9.2,4.282-9.2Zm.538-.666c-4.979,0-7.453,5.423-7.453,10.72,0,5.837,3.014,10.278,7.168,10.278,4.251,0,7.422-4.345,7.422-10.785,0-6.057-3.2-10.213-7.1-10.213ZM29.655.76h-6.5v.318c1.808.253,2.061.412,2.061,3.234V9.832H17.38V4.313c0-2.886.222-3.012,2.03-3.234V.76H12.941v.318c2,.222,2.219.349,2.219,3.234V17.444c0,2.853-.222,2.982-2.126,3.234V21h6.471v-.318c-1.9-.253-2.126-.381-2.126-3.234V10.624h7.834v6.819c0,2.823-.253,2.982-2.252,3.234V21h6.662v-.318c-1.967-.253-2.189-.412-2.189-3.234V4.313c0-2.823.222-2.982,2.219-3.234ZM9.738,4.535C9.548,3.171,9.389,1.9,9.263.919A11.457,11.457,0,0,0,6.249.379C2.6.379.54,2.79.54,5.709c0,3.171,2.568,4.916,4.567,6.216,1.934,1.268,3.33,2.7,3.33,4.726,0,2.252-1.141,4.09-3.426,4.09-2.853,0-4.219-2.79-4.63-4.567L0,16.333c.222,1.459.414,3.171.666,4.092.349.126.825.379,1.522.6a10.482,10.482,0,0,0,2.442.35,5.627,5.627,0,0,0,5.932-5.71c0-3.393-2.982-5.169-4.759-6.342C3.774,8.024,2.537,6.85,2.537,4.63c0-1.84.984-3.615,3.045-3.615,2.411,0,3.267,1.712,3.774,3.615Z" transform="translate(0 0)"/>
  </g>
</svg>
